<svg width="104" height="100" viewBox="0 0 104 100" fill="none" xmlns="http://www.w3.org/2000/svg">
<circle cx="54.8602" cy="50.7" r="47.8602" fill="#F1F5F9" stroke="#D6DFE8" stroke-width="2" stroke-miterlimit="10"/>
<path d="M12.7203 10.4C15.5921 10.4 17.9203 8.07189 17.9203 5.2C17.9203 2.32812 15.5921 0 12.7203 0C9.84838 0 7.52026 2.32812 7.52026 5.2C7.52026 8.07189 9.84838 10.4 12.7203 10.4Z" fill="#EAF2F9"/>
<path d="M73.3687 24.6251H47.8738V14.9497H81.2936C81.355 14.9497 81.4164 14.9497 81.4779 14.9497C86.6997 15.073 90.9386 19.3868 90.9386 24.6251H79.8806" fill="#F1F5F9" stroke="#D6DFE8" stroke-width="2" stroke-miterlimit="10"/>
<path d="M82.215 14.9497C80.2491 15.073 78.4061 15.8741 77.116 17.2299C76.9931 17.3532 76.8703 17.4764 76.7474 17.6613C75.5802 19.0171 74.7201 20.8043 74.7201 22.7147V80.2743C74.7201 85.6358 70.4198 89.9497 65.075 89.9497H18.1399V22.2833C18.2628 20.3113 19 18.5241 20.2901 17.2299C21.703 15.8125 23.6075 14.9497 25.7576 14.9497H73H81.9692C82.0307 14.9497 82.0921 14.9497 82.215 14.9497Z" fill="white" stroke="#D6DFE8" stroke-width="2" stroke-miterlimit="10" stroke-linejoin="round"/>
<path d="M65.3823 28.1379H51.4369C50.9454 28.1379 50.5154 27.7065 50.5154 27.2135C50.5154 26.7205 50.9454 26.2891 51.4369 26.2891H65.3823C65.8737 26.2891 66.3038 26.7205 66.3038 27.2135C66.3038 27.7065 65.9352 28.1379 65.3823 28.1379Z" fill="#AAB8C5"/>
<path d="M44.8635 28.1379H26.6792C26.1877 28.1379 25.7577 27.7065 25.7577 27.2135C25.7577 26.7205 26.1877 26.2891 26.6792 26.2891H44.9249C45.4164 26.2891 45.8464 26.7205 45.8464 27.2135C45.8464 27.7065 45.4164 28.1379 44.8635 28.1379Z" fill="#D6DFE8"/>
<path d="M56.5358 37.2587H38.413C37.9215 37.2587 37.4915 36.8273 37.4915 36.3343C37.4915 35.8413 37.9215 35.4099 38.413 35.4099H56.5358C57.0273 35.4099 57.4573 35.8413 57.4573 36.3343C57.5188 36.8273 57.0887 37.2587 56.5358 37.2587Z" fill="#AAB8C5"/>
<path d="M32.5768 37.2587H26.6792C26.1877 37.2587 25.7577 36.8273 25.7577 36.3343C25.7577 35.8413 26.1877 35.4099 26.6792 35.4099H32.5768C33.0683 35.4099 33.4983 35.8413 33.4983 36.3343C33.4983 36.8273 33.0683 37.2587 32.5768 37.2587Z" fill="#D6DFE8"/>
<path d="M65.3823 46.3796H54.2628C53.7713 46.3796 53.3413 45.9482 53.3413 45.4552C53.3413 44.9622 53.7713 44.5308 54.2628 44.5308H65.3823C65.8737 44.5308 66.3038 44.9622 66.3038 45.4552C66.3038 45.9482 65.9352 46.3796 65.3823 46.3796Z" fill="#D6DFE8"/>
<path d="M48.9181 46.3796H26.6792C26.1877 46.3796 25.7577 45.9482 25.7577 45.4552C25.7577 44.9622 26.1877 44.5308 26.6792 44.5308H48.9181C49.4096 44.5308 49.8396 44.9622 49.8396 45.4552C49.8396 45.9482 49.471 46.3796 48.9181 46.3796Z" fill="#AAB8C5"/>
<path d="M56.5358 55.5002H44.3105C43.8191 55.5002 43.389 55.0688 43.389 54.5758C43.389 54.0828 43.8191 53.6514 44.3105 53.6514H56.5358C57.0273 53.6514 57.4573 54.0828 57.4573 54.5758C57.5187 55.0688 57.0887 55.5002 56.5358 55.5002Z" fill="#AAB8C5"/>
<path d="M38.9659 55.5002H26.6792C26.1877 55.5002 25.7577 55.0688 25.7577 54.5758C25.7577 54.0828 26.1877 53.6514 26.6792 53.6514H39.0273C39.5188 53.6514 39.9488 54.0828 39.9488 54.5758C39.9488 55.0688 39.5188 55.5002 38.9659 55.5002Z" fill="#D6DFE8"/>
<path d="M65.3823 64.621H56.843C56.3515 64.621 55.9215 64.1896 55.9215 63.6966C55.9215 63.2036 56.3515 62.7722 56.843 62.7722H65.3823C65.8737 62.7722 66.3038 63.2036 66.3038 63.6966C66.3038 64.1896 65.9352 64.621 65.3823 64.621Z" fill="#AAB8C5"/>
<path d="M51.314 64.621H37C36.5085 64.621 36.0785 64.1896 36.0785 63.6966C36.0785 63.2036 36.5085 62.7722 37 62.7722H51.314C51.8055 62.7722 52.2355 63.2036 52.2355 63.6966C52.2355 64.1896 51.8055 64.621 51.314 64.621Z" fill="#D6DFE8"/>
<path d="M31.6553 64.621H26.6792C26.1877 64.621 25.7577 64.1896 25.7577 63.6966C25.7577 63.2036 26.1877 62.7722 26.6792 62.7722H31.6553C32.1468 62.7722 32.5768 63.2036 32.5768 63.6966C32.5768 64.1896 32.1468 64.621 31.6553 64.621Z" fill="#AAB8C5"/>
<path d="M56.5358 73.7419H48.058C47.5665 73.7419 47.1365 73.3105 47.1365 72.8175C47.1365 72.3245 47.5665 71.8931 48.058 71.8931H56.5358C57.0273 71.8931 57.4573 72.3245 57.4573 72.8175C57.5187 73.3105 57.0887 73.7419 56.5358 73.7419Z" fill="#AAB8C5"/>
<path d="M42.4676 73.7419H26.6792C26.1877 73.7419 25.7577 73.3105 25.7577 72.8175C25.7577 72.3245 26.1877 71.8931 26.6792 71.8931H42.4676C42.9591 71.8931 43.3891 72.3245 43.3891 72.8175C43.3891 73.3105 42.9591 73.7419 42.4676 73.7419Z" fill="#D6DFE8"/>
<path d="M44.4334 82.308H56.843C56.843 84.4033 57.7031 86.3137 59.0546 87.6695C60.4061 89.087 62.3106 89.8881 64.3993 89.8881H8.55631C6.46758 89.8881 4.56314 89.0253 3.2116 87.6695C1.86007 86.3137 1 84.4033 1 82.308H37.7372C37.7372 82.308 44.5563 82.3696 44.4334 82.308Z" fill="#F1F5F9" stroke="#D6DFE8" stroke-width="2" stroke-miterlimit="10"/>
</svg>
